HIERARCHY
ROOT joint_0
{
	OFFSET 0.000000 0.000000 0.000000
	CHANNELS 6 Xposition Yposition Zposition Zrotation Yrotation Xrotation 
	JOINT joint_1
	{
		OFFSET 13.542969 -4.074463 123.986084
		CHANNELS 3 Zrotation Yrotation Xrotation
		JOINT joint_2
		{
			OFFSET -0.108154 -3.018066 113.860962
			CHANNELS 3 Zrotation Yrotation Xrotation
			JOINT joint_3
			{
				OFFSET -1.139648 -3.876465 113.702026
				CHANNELS 3 Zrotation Yrotation Xrotation
				JOINT joint_4
				{
					OFFSET 13.593506 -8.582153 160.876953
					CHANNELS 3 Zrotation Yrotation Xrotation
					JOINT joint_5
					{
						OFFSET 26.480957 -11.565674 94.427979
						CHANNELS 3 Zrotation Yrotation Xrotation
						End Site
						{
							OFFSET 0.000000 0.000000 0.000000
						}
					}
				}
				JOINT joint_6
				{
					OFFSET 3.003662 -39.658691 88.713989
					CHANNELS 3 Zrotation Yrotation Xrotation
					JOINT joint_7
					{
						OFFSET -25.253906 -162.506348 -28.477051
						CHANNELS 3 Zrotation Yrotation Xrotation
						JOINT joint_8
						{
							OFFSET 23.083252 -8.502686 -295.281982
							CHANNELS 3 Zrotation Yrotation Xrotation
							JOINT joint_9
							{
								OFFSET 20.205566 -32.167908 -263.458008
								CHANNELS 3 Zrotation Yrotation Xrotation
								End Site
								{
									OFFSET 0.000000 0.000000 0.000000
								}
							}
						}
					}
				}
				JOINT joint_10
				{
					OFFSET 12.313232 30.012939 91.642944
					CHANNELS 3 Zrotation Yrotation Xrotation
					JOINT joint_11
					{
						OFFSET 31.960205 162.667969 -19.398926
						CHANNELS 3 Zrotation Yrotation Xrotation
						JOINT joint_12
						{
							OFFSET 51.325195 40.249023 -289.038086
							CHANNELS 3 Zrotation Yrotation Xrotation
							JOINT joint_13
							{
								OFFSET 70.170898 60.433594 -249.556030
								CHANNELS 3 Zrotation Yrotation Xrotation
								End Site
								{
									OFFSET 0.000000 0.000000 0.000000
								}
							}
						}
					}
				}
			}
		}
	}
	JOINT joint_14
	{
		OFFSET -15.093262 -91.803833 -113.326904
		CHANNELS 3 Zrotation Yrotation Xrotation
		JOINT joint_15
		{
			OFFSET 2.288818 -12.306763 -494.206055
			CHANNELS 3 Zrotation Yrotation Xrotation
			JOINT joint_16
			{
				OFFSET -54.691650 0.383423 -424.447006
				CHANNELS 3 Zrotation Yrotation Xrotation
				JOINT joint_17
				{
					OFFSET 202.154297 -21.791382 -80.181999
					CHANNELS 3 Zrotation Yrotation Xrotation
					End Site
					{
						OFFSET 0.000000 0.000000 0.000000
					}
				}
			}
		}
	}
	JOINT joint_18
	{
		OFFSET 10.704102 91.957275 -113.713013
		CHANNELS 3 Zrotation Yrotation Xrotation
		JOINT joint_19
		{
			OFFSET 0.427490 1.374878 -494.359924
			CHANNELS 3 Zrotation Yrotation Xrotation
			JOINT joint_20
			{
				OFFSET -53.071777 2.769531 -424.643028
				CHANNELS 3 Zrotation Yrotation Xrotation
				JOINT joint_21
				{
					OFFSET 200.264648 -28.253052 -82.862999
					CHANNELS 3 Zrotation Yrotation Xrotation
					End Site
					{
						OFFSET 0.000000 0.000000 0.000000
					}
				}
			}
		}
	}
}
MOTION
Frames: 6
Frame Time: 0.016667
-2939.268066 1232.582397 1140.255005 11.127215 -0.038458 -1.654625 2.428416 -1.412881 0.557667 2.427809 0.079249 0.154121 2.408678 -0.430687 0.047447 -0.236446 -2.863821 -0.746127 0.000000 0.000000 0.000000 3.408936 -3.364992 2.530777 -1.284621 -1.074146 -7.033897 -0.870375 2.900307 -3.777805 0.000000 0.000000 0.000000 -1.785000 -0.534616 1.720063 -1.335314 0.583306 -3.420633 -1.822728 -1.842958 -4.289748 0.000000 0.000000 0.000000 -3.828583 4.980843 7.618160 -3.275580 -9.021910 -1.678535 -3.248725 0.949697 -1.165364 0.000000 0.000000 0.000000 0.786961 -8.809059 7.282005 1.058079 -2.669681 -0.660201 0.906742 8.232026 1.522424 0.000000 0.000000 0.000000 
-2931.874756 1233.500122 1140.594971 13.064443 0.057329 -1.329614 2.337941 -1.417226 0.275033 2.346133 0.147619 0.192708 2.321415 -0.507051 0.010034 -0.173760 -3.037147 -1.116032 0.000000 0.000000 0.000000 3.386433 -2.924351 2.629248 -1.302754 -0.424549 -8.284864 -0.595210 2.464441 -1.691189 0.000000 0.000000 0.000000 -1.652858 -0.145500 1.618037 -1.597919 0.731026 -2.389710 -2.697358 -2.734251 -6.037139 0.000000 0.000000 0.000000 -4.392722 5.545692 7.470131 -3.786265 -9.332202 -1.853437 -3.743045 0.615796 -1.394367 0.000000 0.000000 0.000000 0.085193 -8.305700 6.880936 0.370361 -3.589714 -0.853520 0.254071 8.514752 1.306128 0.000000 0.000000 0.000000 
-2924.649902 1234.919312 1140.782959 14.802774 0.102738 -0.995241 2.252085 -1.327618 0.080590 2.265062 0.176766 0.217150 2.238386 -0.531624 -0.017115 -0.075816 -2.993375 -1.475644 0.000000 0.000000 0.000000 3.264801 -2.351316 2.606752 -1.333224 0.283637 -9.281423 -0.378476 2.014101 0.120711 0.000000 0.000000 0.000000 -1.463304 0.217641 1.432499 -1.842573 0.856697 -1.463679 -3.412418 -3.505433 -7.281414 0.000000 0.000000 0.000000 -4.923251 5.849809 7.229329 -4.295967 -9.071135 -1.943727 -4.241903 0.246251 -1.629866 0.000000 0.000000 0.000000 -0.499189 -7.805685 6.439103 -0.218272 -4.380848 -0.990336 -0.290643 8.832869 1.136948 0.000000 0.000000 0.000000 
-2918.013428 1237.070435 1140.719971 16.205265 0.161269 -0.642212 2.209773 -1.144087 -0.002718 2.220767 0.144290 0.236117 2.196649 -0.487877 -0.036186 0.065118 -2.677907 -1.809262 0.000000 0.000000 0.000000 2.974433 -1.583610 2.346188 -1.344163 1.053772 -9.879407 -0.209321 1.523776 1.581465 0.000000 0.000000 0.000000 -1.179908 0.510124 1.168636 -2.029170 0.952959 -0.840776 -3.868667 -4.209354 -7.782654 0.000000 0.000000 0.000000 -5.394570 5.696149 6.806446 -4.800498 -8.039156 -1.876005 -4.737937 -0.130139 -1.866623 0.000000 0.000000 0.000000 -0.889832 -7.391569 5.869070 -0.633529 -5.025013 -0.970558 -0.647377 9.248297 1.055384 0.000000 0.000000 0.000000 
-2911.546875 1239.723022 1140.505981 17.414045 0.169036 -0.273592 2.170821 -0.873140 -0.009718 2.176622 0.075519 0.248699 2.157972 -0.403651 -0.044257 0.228113 -2.152763 -2.098333 0.000000 0.000000 0.000000 2.559602 -0.708758 2.004203 -1.375085 1.864025 -10.256637 -0.094326 1.113904 2.787075 0.000000 0.000000 0.000000 -0.841557 0.792366 0.839472 -2.150924 1.057572 -0.375402 -4.134633 -4.841642 -7.792185 0.000000 0.000000 0.000000 -5.826891 5.296418 6.245474 -5.303567 -6.449682 -1.701430 -5.228644 -0.503093 -2.101806 0.000000 0.000000 0.000000 -1.167389 -6.966593 5.229006 -0.947470 -5.545368 -0.880145 -0.898478 9.688553 1.018698 0.000000 0.000000 0.000000 
-2904.924805 1242.410156 1140.302002 18.484707 0.132719 0.048813 2.132501 -0.609663 0.044175 2.134157 0.010302 0.226587 2.121368 -0.318532 -0.032933 0.353978 -1.564761 -2.226383 0.000000 0.000000 0.000000 2.198823 0.138649 1.735637 -1.392917 2.641462 -10.463856 -0.019449 0.754392 3.409933 0.000000 0.000000 0.000000 -0.500894 1.043252 0.533197 -2.168307 1.170341 -0.051547 -4.171531 -5.117572 -7.493385 0.000000 0.000000 0.000000 -6.204823 4.820947 5.720656 -5.767328 -4.613612 -1.541693 -5.678419 -0.850614 -2.317719 0.000000 0.000000 0.000000 -1.391991 -6.637196 4.716957 -1.199091 -5.693471 -0.901173 -1.123912 9.907240 0.959763 0.000000 0.000000 0.000000 
